<?xml version="1.0" encoding="UTF-8"?>
<svg xmlns="http://www.w3.org/2000/svg" xmlns:xlink="http://www.w3.org/1999/xlink" width="800px" height="800px" viewBox="0 0 800 800" version="1.1">
<g id="surface1">
<path style=" stroke:none;fill-rule:nonzero;fill:rgb(0%,0%,0%);fill-opacity:1;" d="M 352.398438 48 C 276.800781 58.800781 197.199219 98.800781 145.601562 152.800781 C 102.398438 197.199219 78.398438 238 57.601562 300 C 46.800781 332 46.398438 338 46 402 C 46 476 50.398438 497.601562 76 554.398438 C 121.199219 654.800781 216.800781 730.800781 326.398438 754 C 362 761.601562 438 761.601562 473.601562 754 C 565.199219 734.800781 643.199219 681.601562 696.800781 602.800781 C 758.398438 512.398438 773.601562 390.800781 736.800781 284 C 698.800781 173.601562 602 85.601562 487.199219 56.398438 C 450.398438 46.800781 388 43.199219 352.398438 48 Z M 487.199219 67.199219 C 548.398438 84 605.199219 117.601562 648.398438 162.398438 C 693.199219 209.601562 720.398438 257.199219 736.398438 318 C 748.398438 363.199219 748.800781 441.199219 736.800781 486.398438 C 705.199219 610 616.800781 701.199219 493.199219 738.398438 C 462 748 451.199219 749.199219 400 749.199219 C 348.398438 749.199219 338 748.398438 306.800781 738.800781 C 171.601562 697.601562 78 590.800781 57.601562 454.800781 C 30.800781 278 145.199219 107.199219 318 66.800781 C 333.601562 63.199219 349.601562 59.601562 354 58.398438 C 372.398438 54 458.800781 59.601562 487.199219 67.199219 Z M 487.199219 67.199219 "/>
<path style=" stroke:none;fill-rule:nonzero;fill:rgb(0%,0%,0%);fill-opacity:1;" d="M 84 352 C 84 354.398438 94 377.601562 106.398438 403.199219 L 128.800781 450 L 152.398438 402 C 165.199219 375.601562 176 352.800781 176 350.800781 C 176 349.199219 173.601562 348 171.199219 348 C 168.398438 348 158.800781 366 150 388 C 141.199219 410 133.199219 428 131.601562 428 C 130.398438 428 122.398438 410.398438 113.601562 388.800781 C 103.199219 364.398438 94.800781 349.601562 90.800781 348.800781 C 87.199219 348 84 349.601562 84 352 Z M 84 352 "/>
<path style=" stroke:none;fill-rule:nonzero;fill:rgb(0%,0%,0%);fill-opacity:1;" d="M 628.800781 354.398438 C 622.800781 366 588 444 588 446 C 588 447.199219 590 448 592.398438 448 C 594.800781 448 599.601562 440.800781 602.800781 432 C 609.199219 416.398438 609.601562 416 628.800781 416 C 639.199219 416 649.199219 416 651.199219 415.601562 C 652.800781 415.199219 656.800781 422.398438 660 431.601562 C 664.398438 444 668 448 674.398438 448 C 682.800781 448 682.398438 445.601562 661.199219 400.800781 C 649.199219 375.199219 638 352.398438 636 350.398438 C 634.398438 348.800781 630.800781 350.398438 628.800781 354.398438 Z M 637.199219 378.800781 C 640.398438 385.199219 644.398438 394 645.601562 398.800781 C 648.398438 407.199219 647.199219 408 632.398438 408 C 623.199219 408 616 406.800781 616 405.199219 C 616 400.800781 628.800781 368 630.398438 368 C 631.199219 368 634.398438 372.800781 637.199219 378.800781 Z M 637.199219 378.800781 "/>
<path style=" stroke:none;fill-rule:nonzero;fill:rgb(0%,0%,0%);fill-opacity:1;" d="M 692 398 C 692 445.199219 692.398438 448 700 448 C 707.601562 448 708 445.199219 708 398 C 708 350.800781 707.601562 348 700 348 C 692.398438 348 692 350.800781 692 398 Z M 692 398 "/>
<path style=" stroke:none;fill-rule:nonzero;fill:rgb(0%,0%,0%);fill-opacity:1;" d="M 201.601562 376 C 188.800781 381.199219 180 396 180 412.398438 C 180 424.398438 182.800781 429.601562 192.800781 438 C 223.601562 464 267.199219 432.800781 252 395.601562 C 244 376.398438 221.601562 368 201.601562 376 Z M 230 384.800781 C 244.398438 397.601562 246 425.601562 232.398438 436.398438 C 220 446.398438 213.601562 446 202 434 C 187.601562 420 188 395.601562 202.398438 384.398438 C 215.601562 374 217.199219 374 230 384.800781 Z M 230 384.800781 "/>
<path style=" stroke:none;fill-rule:nonzero;fill:rgb(0%,0%,0%);fill-opacity:1;" d="M 260 374.398438 C 260 375.601562 266.800781 384.800781 274.800781 394.800781 C 287.199219 410 289.199219 415.199219 288.398438 430.398438 C 287.601562 446 288.398438 448 296.398438 448 C 304.398438 448 304.800781 446.398438 302.398438 431.601562 C 300 417.199219 301.601562 413.199219 314 396 C 332.800781 370.398438 331.601562 365.601562 312.398438 388 C 303.601562 398 296 405.199219 295.199219 404 C 294.398438 402.800781 288.800781 395.199219 282.800781 386.800781 C 273.199219 374 260 366.800781 260 374.398438 Z M 260 374.398438 "/>
<path style=" stroke:none;fill-rule:nonzero;fill:rgb(0%,0%,0%);fill-opacity:1;" d="M 346.398438 407.199219 C 326.398438 447.199219 326 448 332.398438 448 C 334.398438 448 338.398438 442.398438 340.398438 436 C 344.398438 425.199219 346.398438 424 362.398438 424 C 378.800781 424 380.800781 425.199219 384.398438 436 C 387.199219 443.601562 391.601562 448 396.398438 448 C 400.398438 448 404 447.601562 404 446.800781 C 404 444 380.398438 396.800781 372.800781 384 L 364.800781 370.800781 Z M 369.601562 403.601562 C 375.601562 414.800781 375.601562 415.199219 365.601562 417.601562 C 359.601562 419.199219 354 419.601562 352.800781 418.398438 C 350.800781 416.398438 359.601562 392 362.398438 392 C 363.199219 392 366.398438 397.199219 369.601562 403.601562 Z M 369.601562 403.601562 "/>
<path style=" stroke:none;fill-rule:nonzero;fill:rgb(0%,0%,0%);fill-opacity:1;" d="M 433.601562 376 C 420.800781 381.199219 412 396 412 412.398438 C 412 439.199219 446.800781 457.199219 472.398438 444 C 481.199219 439.199219 482.800781 422 474.398438 418.800781 C 470 417.199219 468 420 467.199219 429.199219 C 466.398438 439.601562 464 442.398438 455.199219 443.199219 C 438.800781 445.199219 424 428.800781 424 408.800781 C 424 384.398438 444.398438 371.199219 465.199219 382 C 475.601562 387.199219 476 387.199219 472 379.601562 C 467.601562 371.601562 449.199219 369.601562 433.601562 376 Z M 433.601562 376 "/>
<path style=" stroke:none;fill-rule:nonzero;fill:rgb(0%,0%,0%);fill-opacity:1;" d="M 496 410 L 496 448 L 515.601562 448 C 526.800781 448 536.800781 446 538 444 C 539.601562 441.601562 534 440 524.398438 440 C 508.398438 440 508 439.601562 508 426 C 508 413.199219 508.800781 412 520 412 C 526.800781 412 532 410 532 408 C 532 405.601562 526.800781 404 520 404 C 509.199219 404 508 402.800781 508 392 C 508 380.800781 509.199219 380 522 380 C 529.601562 380 536 378 536 376 C 536 373.601562 527.199219 372 516 372 L 496 372 Z M 496 410 "/>
</g>
</svg>